# xmcd
#
# Track frame offsets: 
#        150
#        14775
#        27825
#        46800
#        56325
#        69000
#        84075
#        104025
#        114075
#        134025
#        148163
#        158775
#        174488
#
# Disc length: 2603 seconds
#
# Revision: 3
# Processed by: cddbd v1.5.2PL0 Copyright (c) Steve Scherf et al.
# Submitted via: ExactAudioCopy v0.99pb4
#
DISCID=a80a290d
DTITLE=Johnny Shines - Mr. Cover Shaker
DYEAR=1900
DGENRE=Blues
TTITLE0=The Devil's Daughter
TTITLE1=Look Behind The Door
TTITLE2=Two Steps To Hell
TTITLE3=The Face In The Courthouse
TTITLE4=Blood Ran Like Wine #1
TTITLE5=May I Apologize
TTITLE6=Blood Ran Like Wine #2
TTITLE7=I'm Getting Old
TTITLE8=Mother's Place
TTITLE9=Mr. Cover Shaker
TTITLE10=Shotgun Whupin'
TTITLE11=Lost Love Letter Blues
TTITLE12=Stand By Me
EXTD=
EXTT0=
EXTT1=
EXTT2=
EXTT3=
EXTT4=
EXTT5=
EXTT6=
EXTT7=
EXTT8=
EXTT9=
EXTT10=
EXTT11=
EXTT12=
PLAYORDER=
